# xmcd CD database file
#
# Track frame offsets:
#	150
#	31102
#	54200
#	74500
#	91825
#	109805
#	132387
#	158442
#	182282
#	194537
#
# Disc length: 2841 seconds
#
# Revision: 1
# Processed by: cddbd v1.4PL0 Copyright (c) Steve Scherf et al.
# Submitted via: CDex 1.50beta10
#
DISCID=780b170a
DTITLE=Jose Missamou - "El Salsero Africana No 1"
DYEAR=1996
DGENRE=Salsa
TTITLE0=Montono Ya Congo
TTITLE1=Soy El Monte
TTITLE2=Ngai Momeli
TTITLE3=Negro Congo Brongo
TTITLE4=Mama Adela
TTITLE5=Salsero De Brazaville
TTITLE6=Llevala Pal Ringo
TTITLE7=Mouana N'kento
TTITLE8=Negrita Mia
TTITLE9=El Manisero
EXTD=YEAR: 1996
EXTT0=
EXTT1=
EXTT2=
EXTT3=
EXTT4=
EXTT5=
EXTT6=
EXTT7=
EXTT8=
EXTT9=
PLAYORDER=
